<svg xmlns:xlink="http://www.w3.org/1999/xlink" class="h-full" viewBox="0 0 423 39" fill="none" xmlns="http://www.w3.org/2000/svg" width="423"  height="39" ><path d="M5.01001 6.19C8.06001 3.04 12.37 0.980011 17.12 0.980011C25.13 0.980011 31.44 5.99001 33.44 13.89H28.43C26.58 8.63001 22.27 5.98001 17.12 5.98001C13.77 5.98001 10.71 7.43001 8.51001 9.73001C6.31001 12.03 4.91 15.14 4.91 18.74C4.91 22.24 6.31001 25.35 8.51001 27.65C10.71 29.95 13.77 31.4 17.12 31.4C22.43 31.4 26.93 28.35 28.73 23.04H33.69C31.69 31 25.28 36.4 17.12 36.4C12.36 36.4 8.06001 34.4 5.01001 31.19C2.01001 27.99 0 23.58 0 18.73C0.01 13.8 2.01001 9.39 5.01001 6.19Z" fill="black"></path><path d="M45.21 15.95H60.03V1.18002H65.14V36.17H60.03V20.95H45.21V36.17H40.15V1.18002H45.21V15.95Z" fill="black"></path><path d="M77.29 31.11H93.56V36.17H72.19V1.18002H93.51V6.24002H77.29V16.1H93.16V21.2H77.29V31.11Z" fill="black"></path><path d="M99.82 36.17V1.08002L103.72 1.13L120.79 25.81V1.13H125.8V36.17H121.8L104.88 11.69V36.17H99.82Z" fill="black"></path><path d="M152.53 25.86H139.97C138.62 29.06 136.87 33.27 135.77 36.17H130.31L144.38 0.680023H148.08L162.15 36.17H156.74L152.53 25.86ZM141.87 21.1H150.58L146.28 8.74002L141.87 21.1Z" fill="black"></path><path d="M173.6 18.4H179.51C183.76 18.4 185.87 15.35 185.87 12.29C185.87 9.29001 183.77 6.23001 179.51 6.23001H171.75V36.16H166.74V1.12003H179.5C187.11 1.12003 190.91 6.73 190.91 12.28C190.91 17.24 187.86 21.94 181.85 22.99L192.91 36.15H186.35L173.59 20.78V18.4H173.6Z" fill="black"></path><path d="M216.35 25.86H203.79C202.44 29.06 200.69 33.27 199.59 36.17H194.13L208.2 0.680023H211.9L225.97 36.17H220.56L216.35 25.86ZM205.69 21.1H214.4L210.1 8.74002L205.69 21.1Z" fill="black"></path><path d="M259.88 0.77002C272 0.77002 278.08 10 278.08 19.18C278.08 28.36 272 37.49 259.88 37.49H246.03V0.77002H259.88ZM259.88 28.93C266.07 28.93 269.22 24 269.22 19.17C269.22 14.34 266.07 9.26001 259.88 9.26001H254.95V28.93H259.88Z" fill="black"></path><path d="M299.76 0.430023C310.1 0.430023 318.53 8.50002 318.53 19.15C318.53 29.65 310.1 37.72 299.76 37.72C289.42 37.72 281.04 29.81 281.04 19.15C281.04 8.50002 289.42 0.430023 299.76 0.430023ZM309.64 19.15C309.64 5.50002 289.83 5.45002 289.83 19.15C289.83 32.81 309.64 32.7 309.64 19.15Z" fill="black"></path><path d="M336.41 0.77002C348.53 0.77002 354.61 10 354.61 19.18C354.61 28.36 348.53 37.49 336.41 37.49H322.56V0.77002H336.41ZM336.41 28.93C342.6 28.93 345.75 24 345.75 19.17C345.75 14.34 342.6 9.26001 336.41 9.26001H331.48V28.93H336.41Z" fill="black"></path><path d="M365.42 19.15C365.42 25.47 369.56 29.61 375.03 29.61C377.52 29.61 380.39 28.81 382.36 26.16H371V18.04H393.72C393.72 22.34 392.98 25.05 392.39 26.43C389.79 33.54 381.99 38.27 375.03 38.27C364.31 38.27 356.24 30.25 356.24 19.16C356.24 8.01 364.52 0 375.03 0C382.25 0 392.07 3.98 393.61 15.66H384.06C382.73 10.35 378.43 8.87003 375.04 8.87003C369.56 8.85003 365.42 13.15 365.42 19.15Z" fill="black"></path><path d="M406.9 28.79H422.09V37.43H397.9V0.77002H422.04V9.41H406.91V14.75H421.73V23.44H406.91V28.79H406.9Z" fill="black"></path></svg>